<?xml version="1.0" encoding="UTF-8"?>
<svg id="Layer_1" xmlns="http://www.w3.org/2000/svg" version="1.1" viewBox="0 0 360 110.67">
  <!-- Generator: Adobe Illustrator 29.5.0, SVG Export Plug-In . SVG Version: 2.1.0 Build 137)  -->
  <defs>
    <style>
      .st0 {
        fill: #bfe8ec;
      }

      .st1 {
        fill: #e7fe55;
      }

      .st2 {
        fill: #35393d;
      }
    </style>
  </defs>
  <g>
    <path class="st2" d="M173.31,66.81c-.24-3.09-.48-6.24-.72-9.44-.24-3.2-.49-6.27-.76-9.2-.27-2.93-.53-5.49-.8-7.68-.27-2.19-.51-3.76-.72-4.72-.21-1.01-.8-1.77-1.76-2.28-.96-.51-2.21-.76-3.76-.76-.85,0-1.72.09-2.6.28-.88.19-1.61.44-2.2.76-1.44,3.41-3.2,7.61-5.28,12.6-2.08,4.99-4.13,10.15-6.16,15.48h-.4c-1.07-2.56-2.19-5.35-3.36-8.36-1.17-3.01-2.37-6-3.6-8.96-1.23-2.96-2.45-5.67-3.68-8.12-.53-1.28-1.32-2.21-2.36-2.8-1.04-.59-2.36-.88-3.96-.88-1.44,0-2.64.23-3.6.68-.96.45-1.65.89-2.08,1.32-.27,2.93-.53,6.19-.8,9.76-.27,3.57-.52,7.19-.76,10.84-.24,3.65-.45,7.11-.64,10.36-.19,3.25-.35,6.04-.48,8.36-.13,2.32-.2,3.88-.2,4.68,0,1.12.35,1.97,1.04,2.56.69.59,1.79.88,3.28.88.69,0,1.37-.08,2.04-.24.67-.16,1.21-.29,1.64-.4.21-3.63.4-7.03.56-10.2.16-3.17.32-6.28.48-9.32.16-3.04.32-6.17.48-9.4.16-3.23.32-6.73.48-10.52h.4c1.07,2.99,2.51,6.69,4.32,11.12,1.81,4.43,3.97,9.47,6.48,15.12.27.75.81,1.28,1.64,1.6.83.32,1.8.48,2.92.48.91,0,1.73-.12,2.48-.36.75-.24,1.33-.55,1.76-.92,2.72-6.67,4.97-12.13,6.76-16.4,1.79-4.27,3.19-7.76,4.2-10.48h.32c.16,2.56.32,5.76.48,9.6s.36,8.07.6,12.68c.24,4.61.52,9.35.84,14.2.11,1.33.56,2.24,1.36,2.72.8.48,1.76.72,2.88.72.91,0,1.68-.09,2.32-.28.64-.19,1.25-.47,1.84-.84-.05-1.49-.16-3.47-.32-5.92s-.36-5.23-.6-8.32Z"/>
    <path class="st2" d="M210.11,45.17c-2.59-1.41-5.56-2.12-8.92-2.12-2.56,0-4.96.43-7.2,1.28-2.24.85-4.19,2.11-5.84,3.76-1.65,1.65-2.96,3.69-3.92,6.12s-1.44,5.21-1.44,8.36c0,4.37.85,8.07,2.56,11.08,1.71,3.01,4.12,5.28,7.24,6.8,3.12,1.52,6.73,2.28,10.84,2.28,2.51,0,4.76-.27,6.76-.8s3.59-1.28,4.76-2.24c1.17-.96,1.76-2.03,1.76-3.2,0-.75-.2-1.44-.6-2.08-.4-.64-.92-1.15-1.56-1.52-1.12.8-2.61,1.55-4.48,2.24-1.87.69-3.92,1.04-6.16,1.04-3.73,0-6.75-.95-9.04-2.84-1.82-1.5-3.04-3.61-3.69-6.3l23.45-3.34c1.17-.11,2.08-.48,2.72-1.12.64-.64.96-1.63.96-2.96,0-3.2-.72-6.05-2.16-8.56s-3.45-4.47-6.04-5.88ZM190.66,61.05c.16-3.59,1.16-6.4,3.01-8.4,1.97-2.13,4.45-3.2,7.44-3.2s5.2.85,6.8,2.56c1.6,1.71,2.48,3.79,2.64,6.24l-19.89,2.8Z"/>
    <path class="st2" d="M274.67,44.45c-2.21-.93-4.73-1.4-7.56-1.4-2.99,0-5.6.51-7.84,1.52-1.71.77-3.22,1.66-4.52,2.65-1.17-1.22-2.66-2.21-4.52-2.93-2.13-.83-4.53-1.24-7.2-1.24-2.4,0-4.77.35-7.12,1.04-2.35.69-4.29,1.55-5.84,2.56-1.07.69-1.85,1.44-2.36,2.24-.51.8-.76,1.79-.76,2.96v26.48c0,1.33.37,2.29,1.12,2.88.75.59,1.87.88,3.36.88.8,0,1.53-.07,2.2-.2.67-.13,1.19-.28,1.56-.44v-29.44c.91-.59,2.04-1.12,3.4-1.6,1.36-.48,2.79-.72,4.28-.72,2.19,0,3.96.56,5.32,1.68,1.36,1.12,2.04,2.85,2.04,5.2v21.76c0,1.33.36,2.29,1.08,2.88.72.59,1.85.88,3.4.88.8,0,1.55-.07,2.24-.2.69-.13,1.2-.28,1.52-.44v-25.76c0-.99-.13-1.92-.34-2.8,1-.87,2.11-1.6,3.34-2.16,1.52-.69,3.11-1.04,4.76-1.04,2.24,0,4.03.56,5.36,1.68,1.33,1.12,2,2.85,2,5.2v21.76c0,1.33.36,2.29,1.08,2.88.72.59,1.85.88,3.4.88.75,0,1.47-.07,2.16-.2.69-.13,1.2-.28,1.52-.44v-25.2c0-3.04-.63-5.53-1.88-7.48-1.25-1.95-2.99-3.39-5.2-4.32Z"/>
    <path class="st2" d="M297.35,27.93c-1.39,0-2.56.45-3.52,1.36-.96.91-1.44,2.05-1.44,3.44s.48,2.47,1.44,3.4c.96.93,2.13,1.4,3.52,1.4,1.49,0,2.69-.47,3.6-1.4.91-.93,1.36-2.07,1.36-3.4s-.45-2.53-1.36-3.44c-.91-.91-2.11-1.36-3.6-1.36Z"/>
    <path class="st2" d="M297.11,43.85c-.8,0-1.56.07-2.28.2-.72.13-1.24.25-1.56.36v33.92c0,1.33.37,2.29,1.12,2.88.75.59,1.87.88,3.36.88.8,0,1.53-.07,2.2-.2.67-.13,1.19-.28,1.56-.44v-33.76c0-1.44-.36-2.44-1.08-3-.72-.56-1.83-.84-3.32-.84Z"/>
    <path class="st2" d="M337.75,69.69c-1.85-2.34-3.67-4.72-5.48-7.1,1.26-1.49,2.51-2.98,3.8-4.5,1.76-2.08,3.47-4.16,5.12-6.24.85-1.01,1.45-1.85,1.8-2.52.35-.67.52-1.4.52-2.2,0-1.07-.43-1.92-1.28-2.56-.85-.64-2-.96-3.44-.96h-.48c-.16,0-.35.03-.56.08-1.97,2.83-3.89,5.45-5.76,7.88-1.45,1.89-3.01,3.89-4.63,5.96-1.07-1.4-2.12-2.8-3.13-4.24-1.65-2.35-3.25-4.53-4.8-6.56-.69-.96-1.36-1.72-2-2.28-.64-.56-1.52-.84-2.64-.84s-2.05.39-2.8,1.16c-.75.77-1.25,1.8-1.52,3.08,2.13,2.67,4.23,5.29,6.28,7.88,1.74,2.19,3.6,4.43,5.55,6.71-1.23,1.5-2.47,3-3.75,4.49-2.03,2.37-3.97,4.79-5.84,7.24-.91,1.07-1.51,1.89-1.8,2.48-.29.59-.44,1.2-.44,1.84,0,1.01.41,1.87,1.24,2.56.83.69,2.01,1.04,3.56,1.04h1.28c1.92-2.67,3.88-5.37,5.88-8.12,1.54-2.12,3.06-4.19,4.55-6.23.98,1.35,1.98,2.74,3.01,4.19,1.65,2.35,3.23,4.59,4.72,6.72.85,1.12,1.65,1.99,2.4,2.6.75.61,1.68.92,2.8.92,1.23,0,2.23-.36,3-1.08.77-.72,1.21-1.72,1.32-3-2.13-2.83-4.29-5.63-6.48-8.4Z"/>
  </g>
  <g>
    <rect class="st2" x="21.66" y="21.2" width="86.93" height="71.46" rx="10.38" ry="10.38" transform="translate(-1.64 111.92) rotate(-80.63)"/>
    <path class="st0" d="M33.26,91.16c-2.95-.65-4.87-3.49-4.38-6.48l10.84-65.69c.25-1.5,1.06-2.81,2.3-3.7s2.74-1.24,4.24-.99l50.43,8.32c.1.02.21.04.31.06,2.95.65,4.87,3.49,4.38,6.48l-10.84,65.69c-.25,1.5-1.06,2.81-2.3,3.7-1.23.88-2.74,1.24-4.24.99l-50.43-8.32c-.1-.02-.21-.04-.31-.06Z"/>
    <rect class="st2" x="17.51" y="7.9" width="72.91" height="88.68" rx="10.38" ry="10.38" transform="translate(-2.65 2.89) rotate(-2.99)"/>
    <path class="st1" d="M29.68,93.32c-3.08,0-5.62-2.42-5.78-5.5l-3.54-67.83c-.08-1.55.45-3.03,1.48-4.19,1.04-1.15,2.46-1.83,4.01-1.91l52.07-2.72c.11,0,.21,0,.32,0,3.08,0,5.62,2.42,5.78,5.5l3.54,67.83c.08,1.55-.45,3.03-1.48,4.19-1.04,1.15-2.46,1.83-4.01,1.91l-52.07,2.72c-.11,0-.21,0-.32,0Z"/>
    <circle class="st2" cx="40.2" cy="30.33" r="3.63"/>
    <circle class="st2" cx="65.8" cy="29.01" r="3.63"/>
    <rect class="st2" x="32.65" y="58.15" width="43.99" height="4" rx="1.83" ry="1.83" transform="translate(-3.03 2.9) rotate(-2.96)"/>
    <rect class="st2" x="32.64" y="68.86" width="37.93" height="4" rx="1.83" ry="1.83" transform="translate(-3.59 2.76) rotate(-2.96)"/>
    <rect class="st2" x="33.19" y="79.72" width="26.89" height="4" rx="1.83" ry="1.83" transform="translate(-4.15 2.52) rotate(-2.96)"/>
    <path class="st2" d="M60.64,38.39c-.26.24-.51.5-.78.73-1.76,1.59-4.09,2.52-6.46,2.59-2.69.08-5.26-.99-7.3-2.71-.87-.73-2.04-1.42-3.15-.7-.76.5-1.1,1.55-.77,2.39.15.39.42.72.7,1.03,2.7,2.99,6.77,4.71,10.8,4.55,4.03-.16,7.95-2.18,10.41-5.38.25-.33.49-.67.61-1.07.13-.43.11-.89-.04-1.31-.19-.52-.59-.97-1.1-1.17-.68-.25-1.45-.04-2.06.35-.31.2-.59.43-.85.68Z"/>
  </g>
</svg>